<?xml version="1.0" encoding="utf-8"?>
<!-- Generator: Adobe Illustrator 21.0.2, SVG Export Plug-In . SVG Version: 6.00 Build 0)  -->
<svg version="1.1" id="Layer_1" xmlns="http://www.w3.org/2000/svg" xmlns:xlink="http://www.w3.org/1999/xlink" x="0px" y="0px"
	 viewBox="0 0 567 567" style="enable-background:new 0 0 567 567;" xml:space="preserve">
<style type="text/css">
	.st0{fill:#ED1D25;}
	.st1{fill:#F26623;}
	.st2{fill:#92278F;}
	.st3{fill:#FF9400;}
	.st4{fill:#662E91;}
	.st5{fill:#FFC500;}
	.st6{fill:#FEF200;}
	.st7{fill:#2E3192;}
	.st8{fill:#8DC701;}
	.st9{fill:#0054A6;}
	.st10{fill:#01A652;}
	.st11{fill:#01A89E;}
</style>
<g>
	<g>
		<g>
			<g id="XMLID_1_">
				<g>
					<path class="st0" d="M0,284.5h0.5v0.5l281.1-1l-243,141.4l-0.6,0.3C13.4,383.4,0.2,335,0,284.5z"/>
					<path class="st1" d="M0.5,284.5H0C-0.2,234,12.7,185.6,37.1,143l0.6,0.3l244.8,140.2l-0.9,0.5L0.5,285V284.5z"/>
					<path class="st2" d="M38.7,425.5l243-141.4h1L142.5,528.8l-0.3,0.6c-21.1-12.1-40.7-27.1-58.4-44.7
						c-18-17.8-33.2-37.6-45.6-58.9L38.7,425.5z"/>
					<path class="st3" d="M37.7,143.3l-0.6-0.3c12.2-21.4,27.4-41.3,45.2-59.3c17.6-17.7,37.1-32.8,58.1-45.1l0.3,0.6l142.1,244.1
						l-0.3,0.2L37.7,143.3z"/>
					<path class="st4" d="M142.5,528.8L282.6,284h0.4l1,282.5v0.5c-50.6,0.1-99.2-13-141.9-37.6L142.5,528.8z"/>
					<path class="st5" d="M140.7,39.2l-0.3-0.6C183,13.6,231.7,0.2,282.5,0v0.5H282l1,282.7l-0.2,0.1L140.7,39.2z"/>
					<polygon points="281.6,284 282.5,283.5 282.8,283.7 282.6,284 					"/>
					<polygon points="282.8,283.7 282.5,283.5 282.8,283.3 282.9,283.5 					"/>
					<polygon points="282.6,284 282.8,283.7 283,283.8 283,284 					"/>
					<polygon points="282.9,283.5 282.8,283.3 283,283.2 283,283.4 					"/>
					<polygon points="282.8,283.7 282.9,283.5 283,283.6 283,283.8 					"/>
					<polygon points="283,283.6 282.9,283.5 283,283.4 283,283.5 					"/>
					<path class="st6" d="M282.5,0.5V0C333-0.2,381.4,12.7,424,37.1l-0.3,0.6L283.1,283.1l-0.1,0.1L282,0.5H282.5z"/>
					<polygon points="283,283.4 283,283.2 283.1,283.1 283.1,283.3 					"/>
					<polygon points="283,283.5 283,283.4 283.1,283.3 283.5,283.5 					"/>
					<polygon points="283,283.6 283,283.5 283.5,283.5 283.1,283.8 					"/>
					<polygon points="283,283.8 283,283.6 283.1,283.8 283.1,283.9 					"/>
					<polygon points="283,284 283,283.8 283.1,283.9 283.2,284 					"/>
					<path class="st7" d="M284,566.5L283,284h0.2l142.2,244.3l0.3,0.6c-42.4,24.7-90.8,37.9-141.3,38.1c-0.2,0-0.3,0-0.5,0
						L284,566.5z"/>
					<polygon points="283.1,283.9 283.1,283.8 283.5,283.5 283.3,283.9 					"/>
					<polygon points="283.1,283.3 283.1,283.1 283.2,283.1 283.5,283.5 					"/>
					<polygon points="283.1,283.9 283.3,283.9 283.4,284 283.2,284 					"/>
					<path class="st8" d="M423.7,37.7l0.3-0.6c21.4,12.2,41.3,27.4,59.3,45.2c17.7,17.6,32.8,37.1,45.1,58.1l-0.6,0.3L283.2,283.1
						l-0.1,0.1L423.7,37.7z"/>
					<path class="st9" d="M425.5,528.3L283.2,284h0.2l245.5,140.5l0.6,0.3c-12.1,21.1-27.1,40.7-44.7,58.4
						c-17.8,18-37.6,33.2-58.9,45.6L425.5,528.3z"/>
					<polygon points="283.3,283.9 283.5,283.5 283.5,284 283.4,284 					"/>
					<path class="st10" d="M283.5,283.5l-0.3-0.4l244.6-142.4l0.6-0.3c25,42.7,38.4,91.3,38.6,142.1h-0.5v0.5l-283,1V283.5z"/>
					<path class="st11" d="M528.8,424.5L283.4,284h0.1l283-1v-0.5h0.5c0.2,50.8-12.9,99.6-37.6,142.4L528.8,424.5z"/>
				</g>
			</g>
		</g>
	</g>
</g>
</svg>
